<?xml version="1.0" encoding="UTF-8"?><svg id="Calque_1" xmlns="http://www.w3.org/2000/svg" viewBox="0 0 135.87 140.58"><defs><style>.cls-1{stroke:#009fe3;}.cls-1,.cls-2,.cls-3{fill:none;stroke-linecap:round;stroke-linejoin:round;stroke-width:2px;}.cls-2{stroke:#ededed;}.cls-3{stroke:#e30613;}</style></defs><path class="cls-2" d="M33.47,13.96c2.33,6.65,4.11,13.55,7.09,19.9,12.28,26.19,29.39,48.9,50.85,68.34,3.84,3.48,7.66,6.98,11.49,10.47"/><path class="cls-2" d="M37.96,16.95c10.84,29.64,27.69,55.41,50.5,77.21,5.62,5.37,11.93,10.03,17.93,15.01"/><path class="cls-2" d="M31.97,22.44c5.55,15.46,13.33,29.77,22.47,43.37,12.29,18.29,27.61,33.78,44.46,47.85"/><path class="cls-2" d="M43.46,20.94c14.23,35.13,36.6,63.99,66.93,86.74"/><path class="cls-2" d="M46.45,20.94c2,3.32,4.4,6.47,5.93,10,8.17,18.93,19.93,35.5,34.15,50.21,7.84,8.11,16.88,15.05,25.33,22.58,.87,.77,1.36,1.96,2.02,2.96"/><path class="cls-1" d="M29.47,29.41c2.33,4.15,4.96,8.17,6.94,12.48,11.46,24.83,28.31,45.61,48.04,64.25,2.4,2.27,5.29,4.03,7.96,6.02"/><path class="cls-1" d="M15.99,23.43c4.96,14.77,11.86,28.62,20,41.86,8.92,14.51,19.15,28.02,31.43,39.91,1.01,.98,1.69,2.3,2.52,3.47"/><path class="cls-1" d="M25.48,27.92c7.17,17.13,15.85,33.45,27.02,48.32,8.8,11.7,17.83,23.27,29.92,31.94"/><path class="cls-1" d="M20.48,25.93c4,8.31,7.98,16.62,11.99,24.92,9.09,18.84,21.82,35.09,35.95,50.36,1.92,2.08,3.68,4.31,5.51,6.47"/><path class="cls-2" d="M50.95,18.95c10.02,25.02,24.97,46.77,44,65.76,3.5,3.49,7.61,6.36,11.44,9.52"/><path class="cls-2" d="M57.94,14.96c3.58,11.92,9.89,22.55,16.59,32.83,9.25,14.2,19.95,27.31,33.34,37.99,.53,.42,.69,1.3,1.02,1.96"/><path class="cls-2" d="M54.95,18.45c8.43,20.75,20.09,39.49,35.5,55.79,5.41,5.72,11.28,11.01,16.94,16.49"/><path class="cls-2" d="M61.44,14.96c7.43,16.75,16.05,32.86,28.09,46.76,6.67,7.71,14.54,14.39,21.86,21.54"/><path class="cls-3" d="M63.44,11.47c2,3.66,4.25,7.2,5.95,10.99,7.91,17.65,18.58,33.35,32.47,46.88,2.95,2.87,5.37,6.27,8.03,9.43"/><path class="cls-1" d="M19.98,42.38c5.49,10.47,10.01,21.62,16.73,31.24,8.84,12.65,19.4,24.1,29.23,36.06"/><path class="cls-3" d="M68.93,1c6.1,19.55,16.07,37.01,28.99,52.83,2.38,2.92,4.98,5.66,7.48,8.49"/><path class="cls-3" d="M72.93,1c6.3,19.43,16.44,36.7,29.5,52.32,2.1,2.51,4.63,4.68,6.96,7.01"/><path class="cls-3" d="M66.43,6.98c7.25,17.47,15.89,34.15,28.01,48.83,2.76,3.35,5.96,6.34,8.96,9.5"/><path class="cls-3" d="M78.42,5.99c8.11,18.95,18.17,36.66,32.97,51.35"/><path class="cls-1" d="M26.97,65.31c10.08,16.63,21.54,32.19,35.44,45.88,.67,.66,1.02,1.64,1.52,2.47"/><path class="cls-1" d="M26.97,71.79c5.66,8.31,10.92,16.93,17.1,24.83,5.78,7.4,12.54,14.05,18.86,21.03"/><path class="cls-3" d="M84.92,10.97c6.46,15.3,15.7,28.83,26.51,41.34,1.06,1.23,2.63,2.03,3.96,3.02"/><path class="cls-1" d="M24.98,75.78c4.83,7.15,9.3,14.57,14.59,21.36,5.2,6.67,11.22,12.71,16.88,19.02"/><path class="cls-3" d="M93.41,19.94c7.33,10.47,14.64,20.95,22.02,31.38,.38,.53,1.29,.69,1.96,1.02"/><path class="cls-1" d="M23.98,81.76c8.16,10.47,16.32,20.94,24.48,31.41"/><path class="cls-1" d="M20.48,85.25c4.33,5.48,8.69,10.95,12.98,16.46,2.55,3.28,5.01,6.64,7.5,9.96"/><path class="cls-3" d="M100.9,23.93c2,3.49,3.71,7.18,6.06,10.42,3.4,4.68,7.26,9.02,10.92,13.51"/><path class="cls-1" d="M20.48,90.23c5.33,6.65,10.66,13.29,15.98,19.94"/><path class="cls-1" d="M11.99,23.43c2.33,6.15,4.66,12.3,6.99,18.44"/><path class="cls-3" d="M106.39,26.42c4.33,5.82,8.66,11.63,12.99,17.45"/><path class="cls-1" d="M17.98,92.72c3.66,5.32,7.33,10.63,10.99,15.95"/><path class="cls-1" d="M7.49,23.93l5.99,14.46"/><path class="cls-1" d="M3.5,23.93c1.66,3.99,3.33,7.98,5,11.96"/><path class="cls-2" d="M125.38,122.14c3.16,2.16,6.33,4.32,9.49,6.48"/><path class="cls-2" d="M124.38,125.63c3.33,1.83,6.66,3.66,9.99,5.48"/><path class="cls-3" d="M114.89,32.41l5.99,8.47"/><path class="cls-1" d="M124.38,135.1l7.49,4.49"/><path class="cls-2" d="M125.38,130.61c2.33,1.33,4.66,2.66,6.99,3.99"/><path class="cls-2" d="M127.87,119.15l5.99,4.49"/><path class="cls-1" d="M1,26.92c.83,2.16,1.67,4.32,2.5,6.48"/></svg>